<svg width="1355" height="435" viewBox="0 0 1355 435" fill="none" xmlns="http://www.w3.org/2000/svg">
<path d="M756.372 137.872C756.372 153.635 753.328 168.507 747.24 182.486C741.3 196.316 733.133 208.436 722.738 218.846C712.492 229.107 700.464 237.212 686.654 243.16C672.844 249.109 658.069 252.083 642.329 252.083H500.605V207.023H642.329C651.832 207.023 660.742 205.239 669.058 201.67C677.373 197.952 684.575 192.97 690.664 186.724C696.9 180.478 701.801 173.191 705.365 164.863C708.928 156.386 710.71 147.389 710.71 137.872C710.71 128.354 708.928 119.431 705.365 111.103C701.801 102.775 696.9 95.5629 690.664 89.4656C684.575 83.2197 677.373 78.3121 669.058 74.743C660.742 71.1739 651.832 69.3894 642.329 69.3894H474.989V343.542H429.327V23.6602H642.329C658.069 23.6602 672.844 26.7088 686.654 32.806C700.464 38.7545 712.492 46.9337 722.738 57.3436C733.133 67.6048 741.3 79.6506 747.24 93.4809C753.328 107.311 756.372 122.108 756.372 137.872Z" fill="#3C3C3C"/>
<path d="M1039.75 343.542H838.501C827.364 343.542 816.969 341.46 807.317 337.296C797.665 333.132 789.201 327.481 781.925 320.342C774.649 313.055 768.932 304.579 764.774 294.913C760.616 285.097 758.537 274.688 758.537 263.683C758.537 252.529 760.616 242.119 764.774 232.453C768.932 222.787 774.649 214.31 781.925 207.023C789.201 199.736 797.665 194.011 807.317 189.847C816.969 185.683 827.364 183.601 838.501 183.601H971.151V229.33H838.501C833.749 229.33 829.295 230.297 825.137 232.23C820.979 234.015 817.341 236.468 814.222 239.591C811.104 242.714 808.654 246.358 806.872 250.522C805.09 254.686 804.199 259.073 804.199 263.683C804.199 268.442 805.09 272.903 806.872 277.067C808.654 281.082 811.104 284.651 814.222 287.774C817.341 290.897 820.979 293.351 825.137 295.136C829.295 296.92 833.749 297.812 838.501 297.812H994.093V172.224C994.093 167.614 993.128 163.227 991.197 159.063C989.415 154.899 986.965 151.256 983.847 148.133C980.728 145.01 977.09 142.556 972.932 140.772C968.775 138.838 964.394 137.872 959.791 137.872H804.199V92.3655H959.791C970.928 92.3655 981.322 94.4475 990.974 98.6115C1000.63 102.775 1009.09 108.501 1016.37 115.788C1023.64 122.926 1029.36 131.328 1033.52 140.995C1037.68 150.661 1039.75 161.071 1039.75 172.224V343.542Z" fill="#3C3C3C"/>
<path d="M1355 354.918C1355 366.072 1352.92 376.482 1348.76 386.148C1344.61 395.814 1338.89 404.291 1331.61 411.578C1324.48 418.865 1316.02 424.59 1306.22 428.754C1296.57 432.918 1286.25 435 1275.26 435H1119.67V389.271H1275.26C1279.86 389.271 1284.24 388.379 1288.4 386.594C1292.56 384.809 1296.2 382.356 1299.31 379.233C1302.43 376.11 1304.88 372.466 1306.67 368.302C1308.45 364.138 1309.34 359.677 1309.34 354.918V343.542H1210.77C1193.54 343.542 1177.36 340.27 1162.21 333.727C1147.06 327.034 1133.85 318.037 1122.56 306.735C1111.43 295.284 1102.59 281.974 1096.06 266.806C1089.52 251.488 1086.26 235.204 1086.26 217.954V92.3655H1131.92V217.954C1131.92 228.958 1133.92 239.294 1137.93 248.96C1142.09 258.478 1147.73 266.88 1154.86 274.167C1161.99 281.305 1170.3 287.031 1179.81 291.343C1189.46 295.507 1199.78 297.664 1210.77 297.812H1309.34V92.3655H1355V354.918Z" fill="#3C3C3C"/>
<g filter="url(#filter0_d_288_2800)">
<path d="M321.553 13H179.503L16.3156 303.226C6.16919 332.665 31.817 343.265 45.9093 344.885H176.967C183.731 344.885 188.804 340.256 190.496 337.942L349.455 56.0479C360.278 23.2759 335.363 13.6943 321.553 13Z" fill="url(#paint0_linear_288_2800)"/>
</g>
<g filter="url(#filter1_d_288_2800)">
<path d="M44.5539 13H186.604L349.791 303.226C359.937 332.665 334.289 343.265 320.197 344.885H189.139C182.375 344.885 177.302 340.256 175.611 337.942L16.6513 56.0479C5.82849 23.2759 30.7436 13.6943 44.5539 13Z" fill="url(#paint1_linear_288_2800)"/>
</g>
<path d="M86.4512 179.614L186.407 13L279.655 179.614L179.699 344.213L86.4512 179.614Z" fill="url(#paint2_diamond_288_2800)" fill-opacity="0.5"/>
<defs>
<filter id="filter0_d_288_2800" x="13" y="13" width="340.106" height="333.885" filterUnits="userSpaceOnUse" color-interpolation-filters="sRGB">
<feFlood flood-opacity="0" result="BackgroundImageFix"/>
<feColorMatrix in="SourceAlpha" type="matrix" values="0 0 0 0 0 0 0 0 0 0 0 0 0 0 0 0 0 0 127 0" result="hardAlpha"/>
<feOffset dy="1"/>
<feGaussianBlur stdDeviation="0.5"/>
<feComposite in2="hardAlpha" operator="out"/>
<feColorMatrix type="matrix" values="0 0 0 0 0 0 0 0 0 0 0 0 0 0 0 0 0 0 0.1 0"/>
<feBlend mode="normal" in2="BackgroundImageFix" result="effect1_dropShadow_288_2800"/>
<feBlend mode="normal" in="SourceGraphic" in2="effect1_dropShadow_288_2800" result="shape"/>
</filter>
<filter id="filter1_d_288_2800" x="0" y="0" width="366.106" height="359.885" filterUnits="userSpaceOnUse" color-interpolation-filters="sRGB">
<feFlood flood-opacity="0" result="BackgroundImageFix"/>
<feColorMatrix in="SourceAlpha" type="matrix" values="0 0 0 0 0 0 0 0 0 0 0 0 0 0 0 0 0 0 127 0" result="hardAlpha"/>
<feOffset dy="1"/>
<feGaussianBlur stdDeviation="7"/>
<feComposite in2="hardAlpha" operator="out"/>
<feColorMatrix type="matrix" values="0 0 0 0 0 0 0 0 0 0 0 0 0 0 0 0 0 0 0.1 0"/>
<feBlend mode="normal" in2="BackgroundImageFix" result="effect1_dropShadow_288_2800"/>
<feBlend mode="normal" in="SourceGraphic" in2="effect1_dropShadow_288_2800" result="shape"/>
</filter>
<linearGradient id="paint0_linear_288_2800" x1="183.053" y1="13" x2="183.053" y2="344.885" gradientUnits="userSpaceOnUse">
<stop stop-color="#0029FF"/>
<stop offset="1" stop-color="#40D1FF"/>
</linearGradient>
<linearGradient id="paint1_linear_288_2800" x1="183.053" y1="13" x2="183.053" y2="344.885" gradientUnits="userSpaceOnUse">
<stop stop-color="#0094FF"/>
<stop offset="0.65625" stop-color="#22EBBB"/>
<stop offset="1" stop-color="#00E469"/>
</linearGradient>
<radialGradient id="paint2_diamond_288_2800" cx="0" cy="0" r="1" gradientUnits="userSpaceOnUse" gradientTransform="translate(183.053 178.607) rotate(90) scale(165.607 96.6018)">
<stop stop-color="#FFFA88"/>
<stop offset="1" stop-color="#31F396" stop-opacity="0"/>
</radialGradient>
</defs>
</svg>
